<?xml version="1.0" standalone="no"?>
<svg xmlns="http://www.w3.org/2000/svg" xmlns:xlink="http://www.w3.org/1999/xlink" width="318pt" height="422pt" viewBox="0.00 0.00 318 421.6">
<g id="graph0" class="graph" transform="translate(4,417.6000061035156) scale(1)" data-name="">
<polygon fill="white" stroke="none" points="-4,4 -4,-417.6 314,-417.6 314,4 -4,4"/>
<text text-anchor="middle" x="155" y="-41.8" font-family="Times,serif" font-size="14.00">TABA</text>
<text text-anchor="middle" x="155" y="-25" font-family="Times,serif" font-size="14.00">System and components</text>
<text text-anchor="middle" x="155" y="-8.2" font-family="Times,serif" font-size="14.00">v0.2</text>
<g id="clust1" class="cluster" data-name="cluster_0">

<polygon fill="none" stroke="black" stroke-width="2" points="8,-82.4 8,-369.6 302,-369.6 302,-82.4 8,-82.4"/>
<text text-anchor="middle" x="155" y="-353" font-family="Times,serif" font-size="14.00">FAVI System</text>
</g>
<g id="clust2" class="cluster" data-name="cluster_1">

<polygon fill="#e5e5e5" stroke="darkmagenta" stroke-width="2" points="93,-160 93,-336.8 218,-336.8 218,-160 93,-160"/>
<text text-anchor="middle" x="155.5" y="-320.2" font-family="Times,serif" font-size="14.00" fill="darkmagenta">TABA System</text>
<text text-anchor="middle" x="155.5" y="-303.4" font-family="Times,serif" font-size="14.00" fill="darkmagenta">(Docker Container)</text>
</g>
<!-- user -->
<g id="node1" class="node" pointer-events="visible" data-name="user">

<polygon fill="none" stroke="black" points="182,-413.6 128,-413.6 128,-377.6 182,-377.6 182,-413.6"/>
<text text-anchor="middle" x="155" y="-391.4" font-family="Times,serif" font-size="14.00">User</text>
</g>
<!-- tabaFrontend -->
<g id="node2" class="node" pointer-events="visible" data-name="tabaFrontend">

<polygon fill="none" stroke="orange" points="190.71,-287 119.29,-287 119.29,-245.8 190.71,-245.8 190.71,-287"/>
<text text-anchor="middle" x="155" y="-270.6" font-family="Times,serif" font-size="14.00">TABA</text>
<text text-anchor="middle" x="155" y="-253.8" font-family="Times,serif" font-size="14.00">Front-end</text>
</g>
<!-- user&#45;&gt;tabaFrontend -->
<g id="edge1" class="edge" data-name="user-&gt;tabaFrontend">

<path fill="none" stroke="black" d="M155,-377.18C155,-356.95 155,-323.19 155,-298.44"/>
<polygon fill="black" stroke="black" points="158.5,-298.63 155,-288.63 151.5,-298.63 158.5,-298.63"/>
</g>
<!-- tabaBackend -->
<g id="node3" class="node" pointer-events="visible" data-name="tabaBackend">

<polygon fill="none" stroke="blue" points="196.47,-209.4 113.53,-209.4 113.53,-168.2 196.47,-168.2 196.47,-209.4"/>
<text text-anchor="middle" x="155" y="-193" font-family="Times,serif" font-size="14.00">TABA</text>
<text text-anchor="middle" x="155" y="-176.2" font-family="Times,serif" font-size="14.00">Web Server</text>
</g>
<!-- tabaFrontend&#45;&gt;tabaBackend -->
<g id="edge2" class="edge" data-name="tabaFrontend-&gt;tabaBackend">

<path fill="none" stroke="orange" d="M155,-245.54C155,-238.04 155,-229.33 155,-221.04"/>
<polygon fill="orange" stroke="orange" points="158.5,-221.31 155,-211.31 151.5,-221.31 158.5,-221.31"/>
</g>
<!-- extModules -->
<g id="node4" class="node" pointer-events="visible" data-name="extModule1" data-comment="extModules">

<polygon fill="none" stroke="black" points="96.43,-131.8 19.57,-131.8 15.57,-127.8 15.57,-90.6 92.43,-90.6 96.43,-94.6 96.43,-131.8"/>
<polyline fill="none" stroke="black" points="92.43,-127.8 96.43,-131.8"/>
<text text-anchor="middle" x="56" y="-115.4" font-family="Times,serif" font-size="14.00">other FAVI</text><polyline fill="none" stroke="black" points="92.43,-127.8 15.57,-127.8"/>

<text text-anchor="middle" x="56" y="-98.6" font-family="Times,serif" font-size="14.00">module</text><polyline fill="none" stroke="black" points="92.43,-127.8 92.43,-90.6"/>

</g>
<!-- tabaBackend&#45;&gt;extModules -->
<g id="edge3" class="edge" data-name="tabaBackend-&gt;extModule1" data-comment="tabaBackend-&gt;extModules">

<path fill="none" stroke="black" d="M128.73,-167.74C117.23,-158.95 103.56,-148.52 91.19,-139.08"/>
<polygon fill="black" stroke="black" points="93.32,-136.3 83.25,-133.01 89.08,-141.86 93.32,-136.3"/>
</g>
<!-- extModule -->
<g id="node5" class="node" pointer-events="visible" data-name="extModule2" data-comment="extModule">

<polygon fill="none" stroke="black" points="195.43,-131.8 118.57,-131.8 114.57,-127.8 114.57,-90.6 191.43,-90.6 195.43,-94.6 195.43,-131.8"/>
<polyline fill="none" stroke="black" points="191.43,-127.8 114.57,-127.8"/>
<polyline fill="none" stroke="black" points="191.43,-127.8 191.43,-90.6"/>
<polyline fill="none" stroke="black" points="191.43,-127.8 195.43,-131.8"/>
<text text-anchor="middle" x="155" y="-115.4" font-family="Times,serif" font-size="14.00">other FAVI</text>
<text text-anchor="middle" x="155" y="-98.6" font-family="Times,serif" font-size="14.00">module</text>
</g>
<!-- extModule -->
<!-- extModule3 -->
<!-- extModule3 -->
<g id="node6" class="node" pointer-events="visible" data-name="extModule3">

<polygon fill="none" stroke="black" points="294.43,-131.8 217.57,-131.8 213.57,-127.8 213.57,-90.6 290.43,-90.6 294.43,-94.6 294.43,-131.8"/>
<polyline fill="none" stroke="black" points="290.43,-127.8 213.57,-127.8"/>
<polyline fill="none" stroke="black" points="290.43,-127.8 290.43,-90.6"/>
<polyline fill="none" stroke="black" points="290.43,-127.8 294.43,-131.8"/>
<text text-anchor="middle" x="254" y="-115.4" font-family="Times,serif" font-size="14.00">other FAVI</text>
<text text-anchor="middle" x="254" y="-98.6" font-family="Times,serif" font-size="14.00">module</text>
</g>
<g id="edge4" class="edge" data-name="tabaBackend-&gt;extModule2" data-comment="extModule3">

<path fill="none" stroke="black" d="M155,-167.94C155,-160.44 155,-151.73 155,-143.44"/>
<polygon fill="black" stroke="black" points="158.5,-143.71 155,-133.71 151.5,-143.71 158.5,-143.71"/>
</g>
<g id="edge5" class="edge" data-name="tabaBackend-&gt;extModule3" data-comment="extModule3">

<path fill="none" stroke="black" d="M181.27,-167.74C192.77,-158.95 206.44,-148.52 218.81,-139.08"/>
<polygon fill="black" stroke="black" points="220.92,-141.86 226.75,-133.01 216.68,-136.3 220.92,-141.86"/>
</g>
</g>
</svg>