<?xml version="1.0" standalone="no"?>
<svg xmlns="http://www.w3.org/2000/svg" xmlns:xlink="http://www.w3.org/1999/xlink" width="165pt" height="422pt" viewBox="0.00 0.00 165 421.6">
<g id="graph0" class="graph" transform="translate(22.530963289802088,382.930445853426) scale(0.7832979331065634)" data-name="">
<polygon fill="white" stroke="none" points="-4,4 -4,-417.6 161,-417.6 161,4 -4,4"/>
<text text-anchor="middle" x="78.5" y="-41.8" font-family="Times,serif" font-size="14.00">TABA</text>
<text text-anchor="middle" x="78.5" y="-25" font-family="Times,serif" font-size="14.00">System and components</text>
<g id="clust2" class="cluster" data-name="cluster_1">

<polygon fill="#e5e5e5" stroke="darkmagenta" stroke-width="2" points="16,-160 16,-336.8 141,-336.8 141,-160 16,-160"/>
<text text-anchor="middle" x="78.5" y="-320.2" font-family="Times,serif" font-size="14.00" fill="rgb(139, 0, 139)">TABA System</text>
<text text-anchor="middle" x="78.5" y="-303.4" font-family="Times,serif" font-size="14.00" fill="darkmagenta">(Docker Container)</text>
</g><g id="clust1" class="cluster" data-name="cluster_0">

<polygon fill="none" stroke="black" stroke-width="2" points="8,-82.4 8,-369.6 149,-369.6 149,-82.4 8,-82.4"/>
<text text-anchor="middle" x="78.5" y="-353" font-family="Times,serif" font-size="14.00">FAVI System</text>
</g><text text-anchor="middle" x="78.5" y="-8.2" font-family="Times,serif" font-size="14.00">v0.1</text>
<!-- user -->
<g id="node1" class="node" pointer-events="visible" data-name="user">

<polygon fill="none" stroke="black" points="105,-413.6 51,-413.6 51,-377.6 105,-377.6 105,-413.6"/>
<text text-anchor="middle" x="78" y="-391.4" font-family="Times,serif" font-size="14.00">User</text>
</g>
<!-- tabulaAetherea -->
<g id="node2" class="node" pointer-events="visible" data-name="tabaFrontend" data-comment="tabulaAetherea">

<polygon fill="none" stroke="orange" points="113.71,-287 42.29,-287 42.29,-245.8 113.71,-245.8 113.71,-287"/>
<text text-anchor="middle" x="78" y="-270.6" font-family="Times,serif" font-size="14.00">TABA</text>
<text text-anchor="middle" x="78" y="-253.8" font-family="Times,serif" font-size="14.00">Front-end</text>
</g>
<!-- user&#45;&gt;tabulaAetherea -->
<g id="edge1" class="edge" data-name="user-&gt;tabaFrontend" data-comment="user-&gt;tabulaAetherea">

<path fill="none" stroke="black" d="M78,-377.18C78,-356.95 78,-323.19 78,-298.44"/>
<polygon fill="black" stroke="black" points="81.5,-298.63 78,-288.63 74.5,-298.63 81.5,-298.63"/>
</g>
<!-- editorisMelicorum -->

<!-- tabulaAetherea&#45;&gt;editorisMelicorum -->

<!-- editorisTabularum -->
<g id="node3" class="node" pointer-events="visible" data-name="tabaBackend" data-comment="editorisTabularum">

<polygon fill="none" stroke="blue" points="119.47,-209.4 36.53,-209.4 36.53,-168.2 119.47,-168.2 119.47,-209.4"/>
<text text-anchor="middle" x="78" y="-193" font-family="Times,serif" font-size="14.00">TABA</text>
<text text-anchor="middle" x="78" y="-176.2" font-family="Times,serif" font-size="14.00">Web Server</text>
</g>
<g id="edge2" class="edge" data-name="tabaFrontend-&gt;tabaBackend" data-comment="editorisTabularum">

<path fill="none" stroke="rgb(255, 165, 0)" d="M78,-245.54C78,-238.04 78,-229.33 78,-221.04"/>
<polygon fill="orange" stroke="orange" points="81.5,-221.31 78,-211.31 74.5,-221.31 81.5,-221.31"/>
</g><!-- extModules -->
<g id="node4" class="node" pointer-events="visible" data-name="extModules">

<polygon fill="none" stroke="black" points="118.43,-131.8 115.43,-135.8 94.43,-135.8 91.43,-131.8 37.57,-131.8 37.57,-90.6 118.43,-90.6 118.43,-131.8"/>
<text text-anchor="middle" x="78" y="-115.4" font-family="Times,serif" font-size="14.00">other FAVI</text>
<text text-anchor="middle" x="78" y="-98.6" font-family="Times,serif" font-size="14.00">modules</text>
</g>
<g id="edge3" class="edge" data-name="tabaBackend-&gt;extModules" data-comment="extModules">

<path fill="none" stroke="black" d="M78,-167.94C78,-160.44 78,-151.73 78,-143.44"/>
<polygon fill="black" stroke="black" points="81.5,-143.71 78,-133.71 74.5,-143.71 81.5,-143.71"/>
</g>

</g>
</svg>